<svg>
	<defs>
		<symbol id="logo"
				class="logo"
				viewBox="0 0 39 37"
				fill="none"
				xmlns="http://www.w3.org/2000/svg">
			<path d="M23.3862 7.96459C23.3862 7.96459 20.9538 9.06358 20.6728 11.3073C20.3918 13.5511 18.2916 15.7952 16.234 16.448C14.214 17.0895 12.8425 18.9318 10.5379 17.7965C7.62817 16.3631 2.8593 14.0416 0.81665 14.5915C1.27504 14.0519 2.18589 13.2178 2.43022 12.5533C2.79252 11.5448 2.97801 10.9041 3.09304 10.119C3.33078 8.49913 5.35345 5.30831 8.07271 3.67338C9.03505 3.09642 10.5391 1.25647 12.1838 1.61867C13.933 2.00386 15.2721 0.844675 16.6799 1.62679C18.0877 2.4089 19.8191 4.57764 20.4635 5.72203C21.4434 7.46251 23.3862 7.96459 23.3862 7.96459Z"
				  fill="#95001A" />
			<path d="M20.3885 9.08447C20.3885 9.08447 19.5398 15.8978 14.8625 15.4887C10.1852 15.0795 11.7326 13.1998 2.99854 12.9057C2.99854 12.9057 5.33315 10.7157 9.99542 10.2179C14.6577 9.72005 20.3885 9.08447 20.3885 9.08447Z"
				  fill="#780016" />
			<path d="M17.0256 3.6417C18.3774 5.20457 19.459 8.04261 23.2032 7.9818C23.2032 7.9818 19.9352 8.9185 17.5984 7.18796C16.2715 6.20473 13.7829 5.75519 13.7829 5.75519L2.99869 12.9053L0.623047 14.6054C2.73603 12.8225 4.64864 11.1157 5.80001 8.99506C6.93819 6.89929 8.35734 6.67658 10.4166 5.40409C12.1354 4.34197 12.3762 3.61761 12.6565 3.66928C15.8357 4.25547 16.0233 2.48278 17.0256 3.6417Z"
				  fill="#69001F" />
			<path d="M22.1662 8.12287C21.0262 8.57969 20.7375 9.05042 20.2441 9.47353C18.7275 10.7729 17.6992 11.514 16.5171 11.7851C14.333 12.2855 11.4542 11.8711 7.03519 12.0832C4.84381 12.1887 3.56728 12.6576 2.70166 13.1259C2.70166 13.1259 5.58768 9.83333 8.2007 8.47388C10.6218 7.21444 11.4305 5.95869 13.0537 5.54573C14.1889 5.2569 14.4529 5.44613 15.7518 5.21853C16.3221 5.1186 17.0886 5.9733 17.4344 6.2458C18.5821 7.15027 20.2236 8.11628 22.1662 8.12287Z"
				  fill="#36000A" />
			<path d="M8.51047 16.1299C10.1835 17.571 12.8332 18.9334 15.6473 17.6967C18.4614 16.46 20.0432 14.4836 20.6752 12.2871C20.7118 13.1095 20.611 14.8074 19.1534 16.5464C18.6662 17.1281 17.9475 17.9645 16.5576 18.5898C14.5732 19.4829 12.6771 19.2887 12.2547 19.2375C11.6983 19.1693 11.1422 19.0341 9.46622 18.2253C6.11835 16.6098 5.35308 15.7097 3.00125 15.0558C2.2221 14.8412 1.42672 14.6905 0.623047 14.6052L1.62129 13.8909C1.62129 13.8909 6.83782 14.6884 8.51047 16.1299Z"
				  fill="#69001F" />
			<path d="M23.2033 7.98145C23.2033 7.98145 20.9862 9.2581 18.9861 11.6022C18.9861 11.6022 20.1638 8.50749 21.6742 8.10526C21.6727 8.10526 22.8871 8.05911 23.2033 7.98145Z"
				  fill="#810716" />
			<path d="M16.7224 1.0131C17.6917 1.52337 18.1956 1.71498 18.8599 2.67045C19.347 3.37097 19.9919 4.73032 20.5268 5.61298C21.4543 7.14352 22.1953 7.24979 23.1922 7.97738C23.1922 7.97738 20.7063 7.76634 18.9778 4.31003C18.5266 3.4079 17.6813 2.2161 16.5152 1.94471C15.9712 1.8181 15.3574 1.8918 14.6813 2.28865C13.3578 3.06549 12.6529 2.17525 11.6961 2.45392C10.7124 2.74038 10.6238 3.5297 9.01597 3.9583C3.77524 5.88594 4.95518 11.974 0.623047 14.6054C0.623047 14.6057 1.93919 13.4862 2.54683 11.5407C3.53393 8.38019 4.4358 5.87778 7.13673 4.01465C8.21618 3.27003 9.06039 2.67458 10.9607 1.43514C11.6559 0.981674 13.1058 1.4135 14.0219 1.24598C16.0131 0.881903 15.7792 0.516602 16.7224 1.0131Z"
				  fill="#B50018" />
			<path d="M14.6477 10.2506C14.6477 10.2506 8.93849 8.75499 4.35938 12.4351C4.35938 12.4351 12.8702 14.4033 11.4108 18.5579C8.43473 27.0303 15.9339 27.3219 22.319 20.7855C24.8543 18.1897 24.9165 12.6464 20.7268 8.8567C20.7268 8.8567 17.3171 7.75998 14.6477 10.2506Z"
				  fill="#F21B4E" />
			<path d="M23.8456 15.5993C23.2129 16.8683 19.8013 21.7045 16.116 22.0573C11.4721 22.5013 14.7536 16.2272 11.4354 14.6055C8.11721 12.9837 6.15771 12.7346 6.15771 12.7346C6.15771 12.7346 6.87535 11.5781 8.633 10.4601C11.849 9.84502 14.6474 10.2509 14.6474 10.2509C16.2519 8.7541 18.0775 8.48594 19.297 8.53943C19.7315 8.59218 20.0883 8.72676 20.5485 8.80516C22.8629 10.898 23.8921 13.342 23.8456 15.5993Z"
				  fill="#FE677E" />
			<path d="M23.6607 18.4096C23.6241 18.507 23.6036 19.3932 22.405 20.7028C14.5117 28.2561 8.51339 26.4915 11.1876 18.6363C12.6071 14.4682 4.20386 12.487 4.20386 12.487C8.47159 8.65957 14.6468 10.2511 14.6468 10.2511C14.6739 10.2258 14.7007 10.2016 14.7278 10.1778C14.7285 10.1832 14.7296 10.1886 14.7311 10.1939C14.9877 10.3412 15.2365 10.5018 15.4762 10.6753L15.4004 10.4119L14.7443 10.1642L14.73 10.1771C14.7482 10.1589 15.3714 9.37509 16.542 8.86909C17.7326 8.35444 19.7982 8.17519 20.8135 8.91907C18.9034 8.24784 16.5197 9.26383 16.0894 11.1489L16.0653 11.1394C17.8236 12.6648 18.8952 14.8569 18.627 16.8985C17.7899 14.6939 17.0174 13.1733 15.452 11.3533C14.5637 11.0603 11.5349 10.1466 9.57464 10.5654C7.25615 11.0603 6.81802 12.8102 8.26319 13.7825C9.70835 14.7547 11.566 15.0855 11.9148 16.7061C12.2635 18.3268 11.2843 20.0489 11.1495 21.5911C10.9964 23.3433 11.5404 24.8548 13.3368 24.8881C16.3162 24.9423 21.3305 22.082 23.6607 18.4096Z"
				  fill="#B6044A" />
			<path d="M15.4769 10.6753C15.2372 10.5019 14.9885 10.3412 14.7318 10.194C14.7304 10.1887 14.7293 10.1833 14.7285 10.1779L14.7428 10.165L15.4004 10.4123L15.4769 10.6753Z"
				  fill="#D33886" />
			<path d="M21.5735 10.2282C21.6417 10.3275 22.3637 11.3939 22.0054 11.6104C21.6845 11.8049 20.4584 11.3382 20.0731 10.533C19.813 9.98936 19.9221 9.26183 20.2493 9.15963C20.6467 9.03581 21.3153 9.85235 21.5735 10.2282Z"
				  fill="#FFD6EE" />
			<path d="M15.5263 12.2299C16.8084 13.467 17.3213 14.9561 17.1323 15.0334C17.0887 15.0514 16.7769 14.7279 16.1549 14.081C15.2728 13.1633 15.0361 12.882 14.8054 12.5116C14.7614 12.4405 14.1994 11.5298 14.3852 11.4353C14.5427 11.3551 15.1761 11.8918 15.5263 12.2299Z"
				  fill="#FFD6EE" />
			<path d="M12.5431 23.1163C12.4225 23.2365 13.0658 23.8878 14.0263 23.9995C14.4633 24.0501 14.9872 23.9918 15.0249 23.8918C15.0432 23.8431 14.9517 23.7749 14.1772 23.5332C13.1339 23.2082 12.6134 23.0445 12.5431 23.1163Z"
				  fill="#FFD6EE" />
			<path d="M12.2244 21.5313C12.1811 21.6844 12.5094 21.8353 12.6343 21.7815C12.7108 21.7481 12.7182 21.6349 12.6944 21.565C12.6714 21.5067 12.6291 21.4581 12.5747 21.4271C12.5203 21.3961 12.4569 21.3846 12.3951 21.3946C12.3145 21.4115 12.2412 21.4716 12.2244 21.5313Z"
				  fill="#FFD6EE" />
			<path d="M12.5255 11.2413C12.4859 11.5486 11.5572 11.8926 10.7843 11.8813C10.0425 11.8703 9.26952 11.5289 9.34608 11.2219C9.41934 10.9325 10.2289 10.7156 10.8048 10.6804C11.6367 10.6281 12.5665 10.92 12.5255 11.2413Z"
				  fill="#FFD6EE" />
			<path d="M18.2772 2.87418C18.7588 4.05476 18.1133 2.75441 17.4575 2.16731C16.8654 1.63729 16.0421 1.60561 16.1885 1.43715C16.2143 1.38437 16.6661 1.38283 17.0152 1.50935C17.5443 1.70111 18.038 2.28777 18.2772 2.87418Z"
				  fill="#F79B7F" />
			<path d="M8.70484 6.35159C8.82243 6.41753 10.3817 5.40686 11.1089 4.88668C11.8854 4.42546 11.8979 4.0637 12.3306 3.87469C12.5263 3.78921 12.6893 3.71504 13.3245 3.7395C12.8324 3.57618 12.6168 3.55555 12.5203 3.15274C12.4203 2.73561 11.7873 1.46442 11.403 1.51205C11.0187 1.55967 11.1437 2.87929 10.4064 4.13731C9.63974 5.44551 8.56453 6.2732 8.70484 6.35159Z"
				  fill="#B50018" />
			<path d="M11.1257 3.86333C11.0314 4.29552 10.9855 4.51162 11.0494 4.52963C11.223 4.57808 11.9614 4.04941 11.9369 3.53661C11.9215 3.21546 11.6085 2.93633 11.4319 2.98135C11.3933 2.99164 11.3071 3.03152 11.1257 3.86333Z"
				  fill="#F79B7F" />
			<path d="M4.76853 7.69716C4.14931 9.94378 5.04047 8.035 5.68105 6.98111C6.33041 5.91278 7.98087 4.58051 6.78641 5.06017C5.96828 5.3887 4.93601 7.0895 4.76853 7.69716Z"
				  fill="#F79B7F" />
			<path d="M13.4014 3.71676C14.9547 3.97365 15.9179 3.22809 16.6342 3.41474C17.115 3.54002 17.3421 4.25771 17.8525 4.70144C16.8212 3.64969 16.903 2.11411 16.2837 1.83912C15.5371 1.71101 16.6384 2.49419 15.6648 3.07283C15.2046 3.54755 14.038 3.70307 13.4014 3.71676Z"
				  fill="#B50018" />
			<path d="M15.457 2.86164C15.1757 3.11405 14.4785 3.45391 14.5137 3.49831C14.6099 3.61865 15.8616 3.20418 16.1009 2.83656C16.4183 2.40232 16.1858 1.91119 16.0328 1.88212C15.691 1.81721 15.9983 2.37576 15.457 2.86164Z"
				  fill="#F79B7F" />
			<path d="M11.3098 1.60285C11.236 1.78696 12.0696 2.28049 12.6825 2.12753C12.921 2.06804 13.2514 1.8152 13.2478 1.68242C13.2427 1.50162 12.4628 1.47642 12.1022 1.47792C11.8497 1.47897 11.3675 1.45934 11.3098 1.60285Z"
				  fill="#F79B7F" />
			<path d="M11.2371 24.7512L11.2566 24.7684L12.0057 25.4315V19.6571L16.0654 18.2793V31.4067L13.7322 32.1983L10.5488 28.9259L9.03037 27.3657V33.7937L4.16846 35.4433V22.3162L7.28995 21.2572L10.4891 24.0893L11.2371 24.7512Z"
				  fill="#610300" />
			<path d="M20.8088 16.6696L23.106 15.8904L24.8274 15.3062V19.224L23.106 19.808L20.8088 20.5875L20.793 20.593V21.5323L20.8088 21.5268L23.106 20.7476V24.6651L20.8088 25.4447L20.793 25.4498V29.8022L16.8579 31.0913V18.0104L19.072 17.2591L20.793 16.6751L20.8088 16.6696Z"
				  fill="#610300" />
			<path d="M25.6045 15.0425L29.5553 13.7022L33.5058 12.3618H33.5062L37.4567 11.021V14.9389L33.5062 16.2793H33.5058V25.4279L33.5062 25.4276V25.4741L29.5553 26.8215V17.62L25.6045 18.9604V15.0425Z"
				  fill="#610300" />
			<path d="M4.18677 35.4353V22.3574L5.24912 23.3062V36.3838L4.18677 35.4353Z"
				  fill="black" />
			<path d="M4.2046 22.3981L5.23032 23.3139V36.3424L4.2046 35.4266V22.3981ZM4.16797 22.3164V35.4434L5.26695 36.4248V23.2978L4.16797 22.3164Z"
				  fill="#231F20" />
			<path d="M4.2041 22.3232L7.28566 21.2773L8.35315 22.2309L5.27159 23.2768L4.2041 22.3232Z"
				  fill="black" />
			<path d="M7.28104 21.2986L8.31885 22.2239L5.27831 23.2563L4.24233 22.3309L7.28287 21.2986H7.28104ZM7.2913 21.2568L4.16797 22.3177L5.26696 23.2991L8.38846 22.2401L7.28947 21.2583L7.2913 21.2568Z"
				  fill="#231F20" />
			<path d="M12.0239 25.4231V19.6978L13.0863 20.6465V26.3719L12.0239 25.4231Z"
				  fill="black" />
			<path d="M12.042 19.7388L13.0677 20.6546V26.3309L12.042 25.4151V19.7388ZM12.0054 19.6567V25.4316L13.1044 26.413V20.6385L12.0054 19.6567Z"
				  fill="#231F20" />
			<path d="M13.7441 32.1845L10.1357 28.4754L10.1438 28.3882L14.4537 32.8182L13.7441 32.1845Z"
				  fill="black" />
			<path d="M10.1581 28.4296L14.0778 32.457L13.7584 32.1716L10.1555 28.4688L10.1592 28.4296H10.1581ZM10.1299 28.3472L10.1174 28.4823L13.7327 32.1984L14.8317 33.1798L10.1288 28.3472H10.1299Z"
				  fill="black" />
			<path d="M16.8765 31.0827V18.0513L17.9388 19.0001V32.0315L16.8765 31.0827Z"
				  fill="black" />
			<path d="M16.8943 18.0919L17.92 19.0078V31.9901L16.8943 31.0743V18.0919ZM16.8577 18.0103V31.0908L17.9566 32.0725V18.9916L16.8577 18.0103Z"
				  fill="#231F20" />
			<path d="M20.8286 21.5393L23.1017 20.7686L24.1692 21.7217L21.8961 22.4929L20.8286 21.5393Z"
				  fill="black" />
			<path d="M23.0975 20.7891L24.1339 21.7144L21.8993 22.472L20.8644 21.5485L23.099 20.7909L23.0975 20.7891ZM23.1074 20.7495L20.7944 21.5338L21.8934 22.5156L24.2064 21.7309L23.1074 20.7495Z"
				  fill="black" />
			<path d="M30.6356 27.7798C30.5129 27.7241 29.9333 27.172 29.5732 26.8137V17.6606L30.6356 18.6094V27.7798Z"
				  fill="black" />
			<path d="M29.5916 17.7021L30.6173 18.6179V27.7486C30.4708 27.6545 30.0044 27.2171 29.5916 26.8064V17.7021ZM29.5549 17.62V26.8211C29.5549 26.8211 30.5404 27.8029 30.6517 27.8029H30.6539V18.6014L29.5549 17.6196V17.62Z"
				  fill="#231F20" />
			<path d="M25.6228 18.9523V15.0835L26.6852 16.0323V19.9011L25.6228 18.9523Z"
				  fill="black" />
			<path d="M25.6409 15.1242L26.6666 16.04V19.86L25.6409 18.9442V15.1242ZM25.6042 15.0425V18.9622L26.7032 19.9436V16.0239L25.6042 15.0425Z"
				  fill="#231F20" />
			<path d="M25.6399 15.0495L37.4522 11.0415L38.52 11.9947L26.7074 16.0031L25.6399 15.0495Z"
				  fill="black" />
			<path d="M37.448 11.0624L38.4844 11.9874L26.7117 15.9804L25.6757 15.0572L37.448 11.0642V11.0624ZM37.4564 11.0228L25.6042 15.0426L26.7032 16.024L38.5554 12.0024L37.4564 11.021V11.0228Z"
				  fill="#231F20" />
			<path d="M12.0413 19.6645L16.061 18.3003L17.1288 19.2535L13.1087 20.6177L12.0413 19.6645Z"
				  fill="black" />
			<path d="M16.0566 18.3209L17.093 19.2463L13.1128 20.5962L12.0768 19.6709L16.0566 18.3202V18.3209ZM16.065 18.2788L12.0054 19.6562L13.1044 20.638L17.164 19.2602L16.065 18.2788Z"
				  fill="#231F20" />
			<path d="M16.8938 18.0178L24.8234 15.3271L25.8912 16.2803L17.9613 18.971L16.8938 18.0178Z"
				  fill="black" />
			<path d="M24.8187 15.3475L25.8551 16.2733L17.9651 18.95L16.9276 18.0247L24.8173 15.3475H24.8187ZM24.8257 15.3062L16.8577 18.0104L17.9567 18.9918L25.9262 16.2875L24.8272 15.3062H24.8257Z"
				  fill="#231F20" />
			<path d="M12.336 25.7327L12.3554 25.7499L13.1046 26.413V20.6385L17.1642 19.2607V32.3882L14.8311 33.1798L11.6477 29.9077L10.1293 28.3472V34.7752L5.26733 36.4247V23.2977L8.38882 22.2386L11.588 25.0707L12.336 25.7327Z"
				  fill="white" />
			<path d="M21.9081 17.6511L24.2054 16.8719L25.9268 16.2876V20.2055L24.2054 20.7894L21.9081 21.5693L21.8924 21.5745V22.5137L21.9081 22.5086L24.2054 21.729V25.6466L21.9081 26.4261L21.8924 26.4312V30.7836L17.9573 32.0727V18.9918L20.1714 18.2409L21.8924 17.6566L21.9081 17.6511Z"
				  fill="white" />
			<path d="M26.7036 16.024L30.6545 14.684L34.605 13.3432H34.6053L38.5558 12.0024V15.9203L34.6053 17.2607H34.605V26.4094L34.6053 26.4091V26.4556L30.6545 27.803V18.6015L26.7036 19.9419V16.024Z"
				  fill="white" />
		</symbol>
		<symbol viewBox="0 0 16 16"
				fill="none"
				xmlns="http://www.w3.org/2000/svg"
				id="icon-search"
				class="icon-search">
			<path d="M6.54167 0.5C3.21235 0.5 0.5 3.21235 0.5 6.54167C0.5 9.87098 3.21235 12.5833 6.54167 12.5833C7.98182 12.5833 9.30571 12.0746 10.3454 11.2292L14.4331 15.3169C14.4907 15.3769 14.5597 15.4248 14.636 15.4578C14.7123 15.4907 14.7945 15.5082 14.8776 15.509C14.9608 15.5099 15.0433 15.4941 15.1202 15.4627C15.1972 15.4312 15.2672 15.3848 15.326 15.326C15.3848 15.2672 15.4312 15.1972 15.4627 15.1202C15.4941 15.0433 15.5099 14.9608 15.509 14.8776C15.5082 14.7945 15.4907 14.7123 15.4578 14.636C15.4248 14.5597 15.3769 14.4907 15.3169 14.4331L11.2292 10.3454C12.0746 9.30571 12.5833 7.98182 12.5833 6.54167C12.5833 3.21235 9.87099 0.5 6.54167 0.5ZM6.54167 1.75C9.19544 1.75 11.3333 3.8879 11.3333 6.54167C11.3333 7.83442 10.8234 9.00238 9.99626 9.86279C9.94527 9.90027 9.90027 9.94527 9.86279 9.99626C9.00238 10.8234 7.83442 11.3333 6.54167 11.3333C3.8879 11.3333 1.75 9.19543 1.75 6.54167C1.75 3.8879 3.8879 1.75 6.54167 1.75Z"
				  fill="black" />
		</symbol>

	</defs>
</svg>